<svg width="109" height="23" viewBox="0 0 109 23" fill="none" xmlns="http://www.w3.org/2000/svg">
<g clip-path="url(#clip0_291_45)">
<path d="M5.51467 0.0922541C6.07804 -0.118636 6.71388 0.0396122 7.11089 0.48952L12.2814 6.34901H27.7186L32.8891 0.48952C33.2861 0.0396122 33.922 -0.118636 34.4853 0.0922541C35.0487 0.303144 35.4217 0.839038 35.4217 1.43756V14.375H40V17.25H32.5301V5.25565L29.4603 8.73454C29.1858 9.04563 28.7897 9.224 28.3735 9.224H11.6265C11.2103 9.224 10.8142 9.04563 10.5397 8.73454L7.46988 5.25565V17.25H0V14.375H4.57831V1.43756C4.57831 0.839038 4.95131 0.303144 5.51467 0.0922541Z" fill="black"/>
<path d="M32.5301 20.125H40V23H32.5301V20.125Z" fill="black"/>
<path d="M0 20.125H7.46988V23H0V20.125Z" fill="black"/>
<path d="M15.4217 15.3334C15.4217 16.3919 14.5586 17.25 13.494 17.25C12.4293 17.25 11.5663 16.3919 11.5663 15.3334C11.5663 14.2748 12.4293 13.4167 13.494 13.4167C14.5586 13.4167 15.4217 14.2748 15.4217 15.3334Z" fill="black"/>
<path d="M28.4337 15.3334C28.4337 16.3919 27.5707 17.25 26.506 17.25C25.4414 17.25 24.5783 16.3919 24.5783 15.3334C24.5783 14.2748 25.4414 13.4167 26.506 13.4167C27.5707 13.4167 28.4337 14.2748 28.4337 15.3334Z" fill="black"/>
<path d="M107.991 9.27273V10.4091H103.469V9.27273H107.991ZM104.787 7.18182H106.128V15.5C106.128 15.8788 106.183 16.1629 106.293 16.3523C106.406 16.5379 106.55 16.6629 106.724 16.7273C106.902 16.7879 107.09 16.8182 107.287 16.8182C107.435 16.8182 107.556 16.8106 107.651 16.7955C107.745 16.7765 107.821 16.7614 107.878 16.75L108.151 17.9546C108.06 17.9886 107.933 18.0227 107.77 18.0568C107.607 18.0947 107.401 18.1136 107.151 18.1136C106.772 18.1136 106.401 18.0322 106.037 17.8693C105.677 17.7064 105.378 17.4583 105.139 17.125C104.904 16.7917 104.787 16.3712 104.787 15.8636V7.18182Z" fill="black"/>
<path d="M97.7486 18.2045C97.1955 18.2045 96.6937 18.1004 96.2429 17.892C95.7921 17.6799 95.4342 17.375 95.169 16.9773C94.9039 16.5758 94.7713 16.0909 94.7713 15.5227C94.7713 15.0227 94.8698 14.6174 95.0668 14.3068C95.2637 13.9924 95.527 13.7462 95.8565 13.5682C96.1861 13.3901 96.5497 13.2576 96.9474 13.1705C97.349 13.0795 97.7524 13.0076 98.1577 12.9545C98.688 12.8864 99.1179 12.8352 99.4474 12.8011C99.7808 12.7633 100.023 12.7008 100.175 12.6136C100.33 12.5265 100.408 12.375 100.408 12.1591V12.1136C100.408 11.553 100.254 11.1174 99.9474 10.8068C99.6444 10.4962 99.1842 10.3409 98.5668 10.3409C97.9266 10.3409 97.4247 10.4811 97.0611 10.7614C96.6974 11.0417 96.4418 11.3409 96.294 11.6591L95.0213 11.2045C95.2486 10.6742 95.5516 10.2614 95.9304 9.96591C96.313 9.66666 96.7296 9.45833 97.1804 9.34091C97.6349 9.21969 98.0819 9.15909 98.5213 9.15909C98.8016 9.15909 99.1236 9.19318 99.4872 9.26136C99.8546 9.32575 100.209 9.46022 100.55 9.66477C100.894 9.86932 101.18 10.178 101.408 10.5909C101.635 11.0038 101.749 11.5568 101.749 12.25V18H100.408V16.8182H100.339C100.249 17.0076 100.097 17.2102 99.8849 17.4261C99.6728 17.642 99.3906 17.8258 99.0383 17.9773C98.6861 18.1288 98.2562 18.2045 97.7486 18.2045ZM97.9531 17C98.4834 17 98.9304 16.8958 99.294 16.6875C99.6615 16.4792 99.938 16.2102 100.124 15.8807C100.313 15.5511 100.408 15.2045 100.408 14.8409V13.6136C100.351 13.6818 100.226 13.7443 100.033 13.8011C99.8433 13.8542 99.6236 13.9015 99.3736 13.9432C99.1274 13.9811 98.8868 14.0151 98.652 14.0455C98.4209 14.072 98.2334 14.0947 98.0895 14.1136C97.741 14.1591 97.4152 14.233 97.1122 14.3352C96.813 14.4337 96.5705 14.5833 96.3849 14.7841C96.2031 14.9811 96.1122 15.25 96.1122 15.5909C96.1122 16.0568 96.2846 16.4091 96.6293 16.6477C96.9777 16.8826 97.419 17 97.9531 17Z" fill="black"/>
<path d="M89.7883 18.1818C88.9702 18.1818 88.2656 17.9886 87.6747 17.6023C87.0838 17.2159 86.6293 16.6837 86.3111 16.0057C85.9929 15.3276 85.8338 14.553 85.8338 13.6818C85.8338 12.7955 85.9967 12.0133 86.3224 11.3352C86.652 10.6534 87.1103 10.1212 87.6974 9.73863C88.2884 9.35227 88.9777 9.15909 89.7656 9.15909C90.3793 9.15909 90.9323 9.27272 91.4247 9.5C91.9171 9.72727 92.3205 10.0455 92.6349 10.4545C92.9493 10.8636 93.1444 11.3409 93.2202 11.8864H91.8793C91.777 11.4886 91.5497 11.1364 91.1974 10.8295C90.849 10.5189 90.3793 10.3636 89.7883 10.3636C89.2656 10.3636 88.8073 10.5 88.4133 10.7727C88.0232 11.0417 87.7183 11.4223 87.4986 11.9148C87.2827 12.4034 87.1747 12.9773 87.1747 13.6364C87.1747 14.3106 87.2808 14.8977 87.4929 15.3977C87.7088 15.8977 88.0118 16.286 88.402 16.5625C88.7959 16.839 89.258 16.9773 89.7883 16.9773C90.1368 16.9773 90.4531 16.9167 90.7372 16.7955C91.0213 16.6742 91.2618 16.5 91.4588 16.2727C91.6558 16.0455 91.7959 15.7727 91.8793 15.4545H93.2202C93.1444 15.9697 92.9569 16.4337 92.6577 16.8466C92.3622 17.2557 91.9702 17.5814 91.4815 17.8239C90.9967 18.0625 90.4323 18.1818 89.7883 18.1818Z" fill="black"/>
<path d="M80.5895 18.1818C79.7486 18.1818 79.0232 17.9962 78.4133 17.625C77.8073 17.25 77.3395 16.7273 77.0099 16.0568C76.6842 15.3826 76.5213 14.5985 76.5213 13.7045C76.5213 12.8106 76.6842 12.0227 77.0099 11.3409C77.3395 10.6553 77.7978 10.1212 78.3849 9.73863C78.9758 9.35227 79.6652 9.15909 80.4531 9.15909C80.9077 9.15909 81.3565 9.23485 81.7997 9.38636C82.2429 9.53788 82.6463 9.78409 83.0099 10.125C83.3736 10.4621 83.6633 10.9091 83.8793 11.4659C84.0952 12.0227 84.2031 12.7083 84.2031 13.5227V14.0909H77.4758V12.9318H82.8395C82.8395 12.4394 82.741 12 82.544 11.6136C82.3508 11.2273 82.0743 10.9223 81.7145 10.6989C81.3584 10.4754 80.938 10.3636 80.4531 10.3636C79.919 10.3636 79.4569 10.4962 79.0668 10.7614C78.6804 11.0227 78.383 11.3636 78.1747 11.7841C77.9664 12.2045 77.8622 12.6553 77.8622 13.1364V13.9091C77.8622 14.5682 77.9758 15.1269 78.2031 15.5852C78.4342 16.0398 78.7543 16.3864 79.1633 16.625C79.5724 16.8598 80.0478 16.9773 80.5895 16.9773C80.9418 16.9773 81.2599 16.928 81.544 16.8295C81.8319 16.7273 82.08 16.5758 82.2883 16.375C82.4967 16.1705 82.6577 15.9167 82.7713 15.6136L84.0668 15.9773C83.9304 16.4167 83.7012 16.803 83.3793 17.1364C83.0573 17.4659 82.6596 17.7235 82.1861 17.9091C81.7126 18.0909 81.1804 18.1818 80.5895 18.1818Z" fill="black"/>
<path d="M67.1804 21.2727V9.27272H68.4758V10.6591H68.6349C68.7334 10.5076 68.8698 10.3144 69.044 10.0795C69.2221 9.84091 69.4758 9.62879 69.8054 9.44318C70.1387 9.25379 70.5895 9.15909 71.1577 9.15909C71.8925 9.15909 72.5402 9.3428 73.1008 9.71022C73.6615 10.0776 74.099 10.5985 74.4133 11.2727C74.7277 11.947 74.8849 12.7424 74.8849 13.6591C74.8849 14.5833 74.7277 15.3845 74.4133 16.0625C74.099 16.7367 73.6633 17.2595 73.1065 17.6307C72.5497 17.9981 71.9077 18.1818 71.1804 18.1818C70.6198 18.1818 70.1709 18.089 69.8338 17.9034C69.4967 17.714 69.2372 17.5 69.0554 17.2614C68.8736 17.0189 68.7334 16.8182 68.6349 16.6591H68.5213V21.2727H67.1804ZM68.4986 13.6364C68.4986 14.2955 68.5952 14.8769 68.7883 15.3807C68.9815 15.8807 69.2637 16.2727 69.6349 16.5568C70.0061 16.8371 70.4607 16.9773 70.9986 16.9773C71.5592 16.9773 72.027 16.8295 72.402 16.5341C72.7808 16.2348 73.0649 15.8333 73.2543 15.3295C73.4474 14.822 73.544 14.2576 73.544 13.6364C73.544 13.0227 73.4493 12.4697 73.2599 11.9773C73.0743 11.4811 72.7921 11.089 72.4133 10.8011C72.0383 10.5095 71.5668 10.3636 70.9986 10.3636C70.4531 10.3636 69.9948 10.5019 69.6236 10.7784C69.2524 11.0511 68.9721 11.4337 68.7827 11.9261C68.5933 12.4148 68.4986 12.9848 68.4986 13.6364Z" fill="black"/>
<path d="M63.3835 18V9.27273H64.7244V18H63.3835ZM64.0653 7.81818C63.804 7.81818 63.5786 7.72917 63.3892 7.55114C63.2036 7.37311 63.1108 7.15909 63.1108 6.90909C63.1108 6.65909 63.2036 6.44508 63.3892 6.26705C63.5786 6.08902 63.804 6 64.0653 6C64.3267 6 64.5502 6.08902 64.7358 6.26705C64.9252 6.44508 65.0199 6.65909 65.0199 6.90909C65.0199 7.15909 64.9252 7.37311 64.7358 7.55114C64.5502 7.72917 64.3267 7.81818 64.0653 7.81818Z" fill="black"/>
<path d="M53.4091 18V6.36363H57.3409C58.2538 6.36363 59 6.5284 59.5795 6.85795C60.1629 7.18371 60.5947 7.625 60.875 8.18181C61.1553 8.73863 61.2955 9.35984 61.2955 10.0455C61.2955 10.7311 61.1553 11.3542 60.875 11.9148C60.5985 12.4754 60.1705 12.9223 59.5909 13.2557C59.0114 13.5852 58.2689 13.75 57.3636 13.75H54.5455V12.5H57.3182C57.9432 12.5 58.4451 12.392 58.8239 12.1761C59.2026 11.9602 59.4773 11.6686 59.6477 11.3011C59.822 10.9299 59.9091 10.5114 59.9091 10.0455C59.9091 9.57954 59.822 9.16287 59.6477 8.79545C59.4773 8.42803 59.2008 8.14015 58.8182 7.93181C58.4356 7.71969 57.928 7.61363 57.2955 7.61363H54.8182V18H53.4091Z" fill="black"/>
</g>
<defs>
<clipPath id="clip0_291_45">
<rect width="109" height="23" fill="white"/>
</clipPath>
</defs>
</svg>
