<svg xmlns="http://www.w3.org/2000/svg" xmlns:xlink="http://www.w3.org/1999/xlink" xmlns:lucid="lucid" width="880" height="282"><g transform="translate(-2300 181.00000002654755)" lucid:page-tab-id="0_0"><path d="M-500-500h4000v2000H-500z" fill="#fff"/><path d="M2520-174a6 6 0 0 1 6-6h148a6 6 0 0 1 6 6v108a6 6 0 0 1-6 6h-148a6 6 0 0 1-6-6z" stroke="#282c33" stroke-width="2" fill="#fff"/><use xlink:href="#a" transform="matrix(1,0,0,1,2525,-175) translate(20.74074074074074 45.27777777777778)"/><use xlink:href="#b" transform="matrix(1,0,0,1,2525,-175) translate(62.65432098765432 71.94444444444446)"/><path d="M2820-174a6 6 0 0 1 6-6h148a6 6 0 0 1 6 6v108a6 6 0 0 1-6 6h-148a6 6 0 0 1-6-6z" stroke="#282c33" stroke-width="2" fill="#fff"/><use xlink:href="#a" transform="matrix(1,0,0,1,2825,-175) translate(20.74074074074074 45.27777777777778)"/><use xlink:href="#c" transform="matrix(1,0,0,1,2825,-175) translate(62.65432098765432 71.94444444444446)"/><path d="M2520-14a6 6 0 0 1 6-6h148a6 6 0 0 1 6 6V94a6 6 0 0 1-6 6h-148a6 6 0 0 1-6-6z" stroke="#282c33" stroke-width="2" fill="#fff"/><use xlink:href="#a" transform="matrix(1,0,0,1,2525,-15) translate(20.74074074074074 45.27777777777778)"/><use xlink:href="#d" transform="matrix(1,0,0,1,2525,-15) translate(62.0679012345679 71.94444444444446)"/><path d="M2820-14a6 6 0 0 1 6-6h148a6 6 0 0 1 6 6V94a6 6 0 0 1-6 6h-148a6 6 0 0 1-6-6z" stroke="#282c33" stroke-width="2" fill="#fff"/><use xlink:href="#a" transform="matrix(1,0,0,1,2825,-15) translate(20.74074074074074 45.27777777777778)"/><use xlink:href="#e" transform="matrix(1,0,0,1,2825,-15) translate(62.0679012345679 71.94444444444446)"/><path d="M2300.5-40h103a6 6 0 0 0 6-6v-68a6 6 0 0 1 6-6h87.12M2300.5-40h-.5" stroke="#3a414a" fill="none"/><path d="M2517.38-120l-14.26 4.64v-9.28z" stroke="#3a414a" fill="#3a414a"/><use xlink:href="#f" transform="matrix(1,0,0,1,2453.9733942880307,-145.33333333333334) translate(0 14.222222222222223)"/><path d="M2300.5-40h103a6 6 0 0 1 6 6v68a6 6 0 0 0 6 6h87.12M2300.5-40h-.5" stroke="#3a414a" fill="none"/><path d="M2517.38 40l-14.26 4.63v-9.27z" stroke="#3a414a" fill="#3a414a"/><use xlink:href="#f" transform="matrix(1,0,0,1,2341.958243092054,-65.33333333333334) translate(0 14.222222222222223)"/><use xlink:href="#f" transform="matrix(1,0,0,1,2455.5991804446576,14.666666666666664) translate(0 14.222222222222223)"/><path d="M2681.5-120h121.12" stroke="#3a414a" fill="none"/><path d="M2681.5-119.53h-.5v-.94h.5z" stroke="#3a414a" stroke-width=".05" fill="#3a414a"/><path d="M2817.38-120l-14.26 4.64v-9.28z" stroke="#3a414a" fill="#3a414a"/><use xlink:href="#g" transform="matrix(1,0,0,1,2739.6543209876545,-145.33333333333334) translate(0 14.222222222222223)"/><path d="M2681.5 40h121.12" stroke="#3a414a" fill="none"/><path d="M2681.5 40.48h-.5v-.95h.5z" stroke="#3a414a" stroke-width=".05" fill="#3a414a"/><path d="M2817.38 40l-14.26 4.63v-9.27z" stroke="#3a414a" fill="#3a414a"/><use xlink:href="#h" transform="matrix(1,0,0,1,2739.6543209876545,14.666666666666664) translate(0 14.222222222222223)"/><path d="M2981.5-120h93a6 6 0 0 1 6 6v68a6 6 0 0 0 6 6h77.12" stroke="#3a414a" fill="none"/><path d="M2981.5-119.53h-.5v-.94h.5z" stroke="#3a414a" stroke-width=".05" fill="#3a414a"/><path d="M3178.38-40l-14.26 4.63v-9.27z" stroke="#3a414a" fill="#3a414a"/><use xlink:href="#i" transform="matrix(1,0,0,1,3020.076855167786,-145.33333333333334) translate(0 14.222222222222223)"/><path d="M2981.5 40h93a6 6 0 0 0 6-6v-68a6 6 0 0 1 6-6h77.12" stroke="#3a414a" fill="none"/><path d="M2981.5 40.48h-.5v-.95h.5z" stroke="#3a414a" stroke-width=".05" fill="#3a414a"/><path d="M3178.38-40l-14.26 4.63v-9.27z" stroke="#3a414a" fill="#3a414a"/><g><use xlink:href="#j" transform="matrix(1,0,0,1,3019.460797216342,14.666666666666664) translate(0 14.222222222222223)"/></g><g><use xlink:href="#k" transform="matrix(1,0,0,1,3106.5449099683997,-65.33333333333334) translate(0 14.222222222222223)"/><use xlink:href="#l" transform="matrix(1,0,0,1,3106.5449099683997,-65.33333333333334) translate(26.66666666666667 14.222222222222223)"/></g><defs><path fill="#3a414a" d="M24-248c93 1 206-16 204 79-1 75-69 88-152 82V0H24v-248zm52 121c47 0 100 7 100-41 0-47-54-39-100-39v80" id="m"/><path fill="#3a414a" d="M135-150c-39-12-60 13-60 57V0H25l-1-190h47c2 13-1 29 3 40 6-28 27-53 61-41v41" id="n"/><path fill="#3a414a" d="M110-194c64 0 96 36 96 99 0 64-35 99-97 99-61 0-95-36-95-99 0-62 34-99 96-99zm-1 164c35 0 45-28 45-65 0-40-10-65-43-65-34 0-45 26-45 65 0 36 10 65 43 65" id="o"/><path fill="#3a414a" d="M190-63c-7 42-38 67-86 67-59 0-84-38-90-98-12-110 154-137 174-36l-49 2c-2-19-15-32-35-32-30 0-35 28-38 64-6 74 65 87 74 30" id="p"/><path fill="#3a414a" d="M185-48c-13 30-37 53-82 52C43 2 14-33 14-96s30-98 90-98c62 0 83 45 84 108H66c0 31 8 55 39 56 18 0 30-7 34-22zm-45-69c5-46-57-63-70-21-2 6-4 13-4 21h74" id="q"/><path fill="#3a414a" d="M137-138c1-29-70-34-71-4 15 46 118 7 119 86 1 83-164 76-172 9l43-7c4 19 20 25 44 25 33 8 57-30 24-41C81-84 22-81 20-136c-2-80 154-74 161-7" id="r"/><g id="a"><use transform="matrix(0.06172839506172839,0,0,0.06172839506172839,0,0)" xlink:href="#m"/><use transform="matrix(0.06172839506172839,0,0,0.06172839506172839,14.814814814814813,0)" xlink:href="#n"/><use transform="matrix(0.06172839506172839,0,0,0.06172839506172839,23.456790123456788,0)" xlink:href="#o"/><use transform="matrix(0.06172839506172839,0,0,0.06172839506172839,36.9753086419753,0)" xlink:href="#p"/><use transform="matrix(0.06172839506172839,0,0,0.06172839506172839,49.32098765432098,0)" xlink:href="#q"/><use transform="matrix(0.06172839506172839,0,0,0.06172839506172839,61.66666666666666,0)" xlink:href="#r"/><use transform="matrix(0.06172839506172839,0,0,0.06172839506172839,74.01234567901234,0)" xlink:href="#r"/><use transform="matrix(0.06172839506172839,0,0,0.06172839506172839,86.35802469135803,0)" xlink:href="#o"/><use transform="matrix(0.06172839506172839,0,0,0.06172839506172839,99.87654320987654,0)" xlink:href="#n"/></g><path fill="#3a414a" d="M133-34C117-15 103 5 69 4 32 3 11-16 11-54c-1-60 55-63 116-61 1-26-3-47-28-47-18 1-26 9-28 27l-52-2c7-38 36-58 82-57s74 22 75 68l1 82c-1 14 12 18 25 15v27c-30 8-71 5-69-32zm-48 3c29 0 43-24 42-57-32 0-66-3-65 30 0 17 8 27 23 27" id="s"/><path fill="#3a414a" d="M23 0v-37h61v-169l-59 37v-38l62-41h46v211h57V0H23" id="t"/><g id="b"><use transform="matrix(0.06172839506172839,0,0,0.06172839506172839,0,0)" xlink:href="#s"/><use transform="matrix(0.06172839506172839,0,0,0.06172839506172839,12.345679012345679,0)" xlink:href="#t"/></g><path fill="#3a414a" d="M182-182c0 78-84 86-111 141h115V0H12c-6-101 99-100 120-180 1-22-12-31-33-32-23 0-32 14-35 34l-49-3c5-45 32-70 84-70 51 0 83 22 83 69" id="u"/><g id="c"><use transform="matrix(0.06172839506172839,0,0,0.06172839506172839,0,0)" xlink:href="#s"/><use transform="matrix(0.06172839506172839,0,0,0.06172839506172839,12.345679012345679,0)" xlink:href="#u"/></g><path fill="#3a414a" d="M135-194c52 0 70 43 70 98 0 56-19 99-73 100-30 1-46-15-58-35L72 0H24l1-261h50v104c11-23 29-37 60-37zM114-30c31 0 40-27 40-66 0-37-7-63-39-63s-41 28-41 65c0 36 8 64 40 64" id="v"/><g id="d"><use transform="matrix(0.06172839506172839,0,0,0.06172839506172839,0,0)" xlink:href="#v"/><use transform="matrix(0.06172839506172839,0,0,0.06172839506172839,13.518518518518517,0)" xlink:href="#t"/></g><g id="e"><use transform="matrix(0.06172839506172839,0,0,0.06172839506172839,0,0)" xlink:href="#v"/><use transform="matrix(0.06172839506172839,0,0,0.06172839506172839,13.518518518518517,0)" xlink:href="#u"/></g><path fill="#333" d="M135-194c53 0 70 44 70 98 0 56-19 98-73 100-31 1-45-17-59-34 3 33 2 69 2 105H25l-1-265h48c2 10 0 23 3 31 11-24 29-35 60-35zM114-30c33 0 39-31 40-66 0-38-9-64-40-64-56 0-55 130 0 130" id="w"/><use transform="matrix(0.04938271604938272,0,0,0.04938271604938272,0,0)" xlink:href="#w" id="f"/><path fill="#333" d="M84 4C32 4 15-41 15-95c0-55 18-99 73-99 29 0 47 12 58 34l2-30h48l-1 265h-49V-32C136-9 114 4 84 4zm21-34c32 0 41-29 41-66 0-36-9-64-40-64-33 0-39 30-40 65 0 43 13 65 39 65" id="x"/><path fill="#333" d="M23 0v-37h61v-169l-59 37v-38l62-41h46v211h57V0H23" id="y"/><g id="g"><use transform="matrix(0.04938271604938272,0,0,0.04938271604938272,0,0)" xlink:href="#x"/><use transform="matrix(0.04938271604938272,0,0,0.04938271604938272,10.814814814814815,0)" xlink:href="#y"/></g><path fill="#333" d="M182-182c0 78-84 86-111 141h115V0H12c-6-101 99-100 120-180 1-22-12-31-33-32-23 0-32 14-35 34l-49-3c5-45 32-70 84-70 51 0 83 22 83 69" id="z"/><g id="h"><use transform="matrix(0.04938271604938272,0,0,0.04938271604938272,0,0)" xlink:href="#x"/><use transform="matrix(0.04938271604938272,0,0,0.04938271604938272,10.814814814814815,0)" xlink:href="#z"/></g><path fill="#333" d="M135-150c-39-12-60 13-60 57V0H25l-1-190h47c2 13-1 29 3 40 6-28 27-53 61-41v41" id="A"/><g id="i"><use transform="matrix(0.04938271604938272,0,0,0.04938271604938272,0,0)" xlink:href="#A"/><use transform="matrix(0.04938271604938272,0,0,0.04938271604938272,6.913580246913581,0)" xlink:href="#y"/></g><g id="j"><use transform="matrix(0.04938271604938272,0,0,0.04938271604938272,0,0)" xlink:href="#A"/><use transform="matrix(0.04938271604938272,0,0,0.04938271604938272,6.913580246913581,0)" xlink:href="#z"/></g><path fill="#333" d="M76-54c-1 42 2 86-19 110H24C36 42 46 24 48 0H25v-54h51" id="B"/><g id="k"><use transform="matrix(0.04938271604938272,0,0,0.04938271604938272,0,0)" xlink:href="#A"/><use transform="matrix(0.04938271604938272,0,0,0.04938271604938272,6.913580246913581,0)" xlink:href="#y"/><use transform="matrix(0.04938271604938272,0,0,0.04938271604938272,16.790123456790127,0)" xlink:href="#B"/></g><g id="l"><use transform="matrix(0.04938271604938272,0,0,0.04938271604938272,0,0)" xlink:href="#A"/><use transform="matrix(0.04938271604938272,0,0,0.04938271604938272,6.913580246913581,0)" xlink:href="#z"/></g></defs></g></svg>