<svg xmlns="http://www.w3.org/2000/svg" xmlns:xlink="http://www.w3.org/1999/xlink" xmlns:lucid="lucid" width="560" height="182"><g transform="translate(-1660 -478.99999998724337)" lucid:page-tab-id="0_0"><path d="M1500-500h2000v1500H1500z" fill="#fff"/><path d="M1780 486a6 6 0 0 1 6-6h308a6 6 0 0 1 6 6v168a6 6 0 0 1-6 6h-308a6 6 0 0 1-6-6z" stroke="#282c33" stroke-width="2" fill="#fff"/><path d="M1800 506a6 6 0 0 1 6-6h66.55a6 6 0 0 1 6 6v18.9a6 6 0 0 1-6 6H1806a6 6 0 0 1-6-6z" fill="none"/><use xlink:href="#a" transform="matrix(1,0,0,1,1800,500) translate(8.049382716049383 19.944444444444443)"/><path d="M1672 493.65a6 6 0 0 1 6-6h73.07a6 6 0 0 1 6 6v31.24a6 6 0 0 1-6 6H1678a6 6 0 0 1-6-6z" fill="none"/><use xlink:href="#b" transform="matrix(1,0,0,1,1672,487.64923483093037) translate(10.932098765432102 26.444444444444443)"/><use xlink:href="#c" transform="matrix(1,0,0,1,1672,487.64923483093037) translate(62.72222222222222 26.444444444444443)"/><path d="M1976 506a6 6 0 0 1 6-6h73.07a6 6 0 0 1 6 6v31.24a6 6 0 0 1-6 6H1982a6 6 0 0 1-6-6z" fill="none"/><use xlink:href="#b" transform="matrix(1,0,0,1,1976,500) translate(10.932098765432102 26.444444444444443)"/><use xlink:href="#d" transform="matrix(1,0,0,1,1976,500) translate(62.72222222222222 26.444444444444443)"/><path d="M1793.5 566a6 6 0 0 1 6-6h73.05a6 6 0 0 1 6 6v31.24a6 6 0 0 1-6 6h-73.06a6 6 0 0 1-6-6z" fill="none"/><use xlink:href="#b" transform="matrix(1,0,0,1,1793.4885777604536,560) translate(10.932098765432102 26.444444444444443)"/><use xlink:href="#e" transform="matrix(1,0,0,1,1793.4885777604536,560) translate(62.72222222222222 26.444444444444443)"/><path d="M1800 606a6 6 0 0 1 6-6h73.07a6 6 0 0 1 6 6v31.24a6 6 0 0 1-6 6H1806a6 6 0 0 1-6-6z" fill="none"/><use xlink:href="#f" transform="matrix(1,0,0,1,1800,600) translate(5.024691358024683 25.555555555555557)"/><use xlink:href="#g" transform="matrix(1,0,0,1,1800,600) translate(35.59259259259259 25.555555555555557)"/><use xlink:href="#h" transform="matrix(1,0,0,1,1800,600) translate(66.1604938271605 25.555555555555557)"/><path d="M1990 544.38a6 6 0 0 1 6-6h73.07a6 6 0 0 1 6 6v31.24a6 6 0 0 1-6 6H1996a6 6 0 0 1-6-6z" fill="none"/><use xlink:href="#f" transform="matrix(1,0,0,1,1990,538.3809614147572) translate(5.024691358024683 25.555555555555557)"/><use xlink:href="#g" transform="matrix(1,0,0,1,1990,538.3809614147572) translate(35.59259259259259 25.555555555555557)"/><use xlink:href="#h" transform="matrix(1,0,0,1,1990,538.3809614147572) translate(66.1604938271605 25.555555555555557)"/><path d="M1885.57 607.8l3.45-.07 3.6-.25 3.3-.4 3.1-.52 2.9-.63 2.78-.75 2.67-.85 2.6-.97 2.57-1.1 2.58-1.26 2.63-1.44 2.76-1.68 3-2.04 3.5-2.63 4.94-4.08 16.12-14.07 3.5-2.63 3-2.03 2.76-1.7 2.63-1.44 2.57-1.25 2.57-1.1 2.6-.97 2.66-.85 2.78-.74.6-.14" stroke="#3a414a" stroke-linejoin="round" fill="none"/><path d="M1885.6 608.3h-.53v-.95h.5z" stroke="#3a414a" stroke-width=".05" fill="#3a414a"/><path d="M1988.4 560.6l-13.7 6.16-1-9.2z" stroke="#3a414a" fill="#3a414a"/><path d="M2101.5 570h102.12" stroke="#3a414a" fill="none"/><path d="M2101.5 570.48h-.5v-.96h.5z" stroke="#3a414a" stroke-width=".05" fill="#3a414a"/><path d="M2218.38 570l-14.26 4.63v-9.26z" stroke="#3a414a" fill="#3a414a"/><g><use xlink:href="#i" transform="matrix(1,0,0,1,2122.5246663580247,544.6666666666667) translate(0 14.222222222222223)"/><use xlink:href="#j" transform="matrix(1,0,0,1,2122.5246663580247,544.6666666666667) translate(30.567901234567906 14.222222222222223)"/><use xlink:href="#k" transform="matrix(1,0,0,1,2122.5246663580247,544.6666666666667) translate(61.13580246913581 14.222222222222223)"/></g><path d="M1762.62 570H1660.5" stroke="#3a414a" fill="none"/><path d="M1777.38 570l-14.26 4.63v-9.26z" stroke="#3a414a" fill="#3a414a"/><path d="M1660.5 570h-.5" stroke="#3a414a" fill="none"/><g><use xlink:href="#l" transform="matrix(1,0,0,1,1706.5988435578956,544.6666666666667) translate(0 14.222222222222223)"/></g><defs><path fill="#3a414a" d="M133-34C117-15 103 5 69 4 32 3 11-16 11-54c-1-60 55-63 116-61 1-26-3-47-28-47-18 1-26 9-28 27l-52-2c7-38 36-58 82-57s74 22 75 68l1 82c-1 14 12 18 25 15v27c-30 8-71 5-69-32zm-48 3c29 0 43-24 42-57-32 0-66-3-65 30 0 17 8 27 23 27" id="m"/><path fill="#3a414a" d="M137-138c1-29-70-34-71-4 15 46 118 7 119 86 1 83-164 76-172 9l43-7c4 19 20 25 44 25 33 8 57-30 24-41C81-84 22-81 20-136c-2-80 154-74 161-7" id="n"/><path fill="#3a414a" d="M123 10C108 53 80 86 19 72V37c35 8 53-11 59-39L3-190h52l48 148c12-52 28-100 44-148h51" id="o"/><path fill="#3a414a" d="M135-194c87-1 58 113 63 194h-50c-7-57 23-157-34-157-59 0-34 97-39 157H25l-1-190h47c2 12-1 28 3 38 12-26 28-41 61-42" id="p"/><path fill="#3a414a" d="M190-63c-7 42-38 67-86 67-59 0-84-38-90-98-12-110 154-137 174-36l-49 2c-2-19-15-32-35-32-30 0-35 28-38 64-6 74 65 87 74 30" id="q"/><g id="a"><use transform="matrix(0.06172839506172839,0,0,0.06172839506172839,0,0)" xlink:href="#m"/><use transform="matrix(0.06172839506172839,0,0,0.06172839506172839,12.345679012345679,0)" xlink:href="#n"/><use transform="matrix(0.06172839506172839,0,0,0.06172839506172839,24.691358024691358,0)" xlink:href="#o"/><use transform="matrix(0.06172839506172839,0,0,0.06172839506172839,37.03703703703704,0)" xlink:href="#p"/><use transform="matrix(0.06172839506172839,0,0,0.06172839506172839,50.55555555555556,0)" xlink:href="#q"/></g><path fill="#3a414a" d="M127-220V0H93v-220H8v-28h204v28h-85" id="r"/><path fill="#3a414a" d="M141-36C126-15 110 5 73 4 37 3 15-17 15-53c-1-64 63-63 125-63 3-35-9-54-41-54-24 1-41 7-42 31l-33-3c5-37 33-52 76-52 45 0 72 20 72 64v82c-1 20 7 32 28 27v20c-31 9-61-2-59-35zM48-53c0 20 12 33 32 33 41-3 63-29 60-74-43 2-92-5-92 41" id="s"/><path fill="#3a414a" d="M135-143c-3-34-86-38-87 0 15 53 115 12 119 90S17 21 10-45l28-5c4 36 97 45 98 0-10-56-113-15-118-90-4-57 82-63 122-42 12 7 21 19 24 35" id="t"/><path fill="#3a414a" d="M143 0L79-87 56-68V0H24v-261h32v163l83-92h37l-77 82L181 0h-38" id="u"/><g id="b"><use transform="matrix(0.06172839506172839,0,0,0.06172839506172839,0,0)" xlink:href="#r"/><use transform="matrix(0.06172839506172839,0,0,0.06172839506172839,11.049382716049381,0)" xlink:href="#s"/><use transform="matrix(0.06172839506172839,0,0,0.06172839506172839,23.39506172839506,0)" xlink:href="#t"/><use transform="matrix(0.06172839506172839,0,0,0.06172839506172839,34.50617283950617,0)" xlink:href="#u"/></g><path fill="#3a414a" d="M27 0v-27h64v-190l-56 39v-29l58-41h29v221h61V0H27" id="v"/><use transform="matrix(0.06172839506172839,0,0,0.06172839506172839,0,0)" xlink:href="#v" id="c"/><path fill="#3a414a" d="M101-251c82-7 93 87 43 132L82-64C71-53 59-42 53-27h129V0H18c2-99 128-94 128-182 0-28-16-43-45-43s-46 15-49 41l-32-3c6-41 34-60 81-64" id="w"/><use transform="matrix(0.06172839506172839,0,0,0.06172839506172839,0,0)" xlink:href="#w" id="d"/><path fill="#3a414a" d="M126-127c33 6 58 20 58 59 0 88-139 92-164 29-3-8-5-16-6-25l32-3c6 27 21 44 54 44 32 0 52-15 52-46 0-38-36-46-79-43v-28c39 1 72-4 72-42 0-27-17-43-46-43-28 0-47 15-49 41l-32-3c6-42 35-63 81-64 48-1 79 21 79 65 0 36-21 52-52 59" id="x"/><use transform="matrix(0.06172839506172839,0,0,0.06172839506172839,0,0)" xlink:href="#x" id="e"/><path fill="#3a414a" d="M84 4C32 4 15-41 15-95c0-55 18-99 73-99 29 0 47 12 58 34l2-30h48l-1 265h-49V-32C136-9 114 4 84 4zm21-34c32 0 41-29 41-66 0-36-9-64-40-64-33 0-39 30-40 65 0 43 13 65 39 65" id="y"/><path fill="#3a414a" d="M23 0v-37h61v-169l-59 37v-38l62-41h46v211h57V0H23" id="z"/><path fill="#3a414a" d="M76-54c-1 42 2 86-19 110H24C36 42 46 24 48 0H25v-54h51" id="A"/><g id="f"><use transform="matrix(0.04938271604938272,0,0,0.04938271604938272,0,0)" xlink:href="#y"/><use transform="matrix(0.04938271604938272,0,0,0.04938271604938272,10.814814814814815,0)" xlink:href="#z"/><use transform="matrix(0.04938271604938272,0,0,0.04938271604938272,20.69135802469136,0)" xlink:href="#A"/></g><path fill="#3a414a" d="M182-182c0 78-84 86-111 141h115V0H12c-6-101 99-100 120-180 1-22-12-31-33-32-23 0-32 14-35 34l-49-3c5-45 32-70 84-70 51 0 83 22 83 69" id="B"/><g id="g"><use transform="matrix(0.04938271604938272,0,0,0.04938271604938272,0,0)" xlink:href="#y"/><use transform="matrix(0.04938271604938272,0,0,0.04938271604938272,10.814814814814815,0)" xlink:href="#B"/><use transform="matrix(0.04938271604938272,0,0,0.04938271604938272,20.69135802469136,0)" xlink:href="#A"/></g><path fill="#3a414a" d="M24 0v-54h51V0H24" id="C"/><g id="h"><use transform="matrix(0.04938271604938272,0,0,0.04938271604938272,0,0)" xlink:href="#C"/><use transform="matrix(0.04938271604938272,0,0,0.04938271604938272,4.938271604938272,0)" xlink:href="#C"/><use transform="matrix(0.04938271604938272,0,0,0.04938271604938272,9.876543209876544,0)" xlink:href="#C"/></g><path fill="#333" d="M84 4C32 4 15-41 15-95c0-55 18-99 73-99 29 0 47 12 58 34l2-30h48l-1 265h-49V-32C136-9 114 4 84 4zm21-34c32 0 41-29 41-66 0-36-9-64-40-64-33 0-39 30-40 65 0 43 13 65 39 65" id="D"/><path fill="#333" d="M23 0v-37h61v-169l-59 37v-38l62-41h46v211h57V0H23" id="E"/><path fill="#333" d="M76-54c-1 42 2 86-19 110H24C36 42 46 24 48 0H25v-54h51" id="F"/><g id="i"><use transform="matrix(0.04938271604938272,0,0,0.04938271604938272,0,0)" xlink:href="#D"/><use transform="matrix(0.04938271604938272,0,0,0.04938271604938272,10.814814814814815,0)" xlink:href="#E"/><use transform="matrix(0.04938271604938272,0,0,0.04938271604938272,20.69135802469136,0)" xlink:href="#F"/></g><path fill="#333" d="M182-182c0 78-84 86-111 141h115V0H12c-6-101 99-100 120-180 1-22-12-31-33-32-23 0-32 14-35 34l-49-3c5-45 32-70 84-70 51 0 83 22 83 69" id="G"/><g id="j"><use transform="matrix(0.04938271604938272,0,0,0.04938271604938272,0,0)" xlink:href="#D"/><use transform="matrix(0.04938271604938272,0,0,0.04938271604938272,10.814814814814815,0)" xlink:href="#G"/><use transform="matrix(0.04938271604938272,0,0,0.04938271604938272,20.69135802469136,0)" xlink:href="#F"/></g><path fill="#333" d="M24 0v-54h51V0H24" id="H"/><g id="k"><use transform="matrix(0.04938271604938272,0,0,0.04938271604938272,0,0)" xlink:href="#H"/><use transform="matrix(0.04938271604938272,0,0,0.04938271604938272,4.938271604938272,0)" xlink:href="#H"/><use transform="matrix(0.04938271604938272,0,0,0.04938271604938272,9.876543209876544,0)" xlink:href="#H"/></g><path fill="#333" d="M135-194c53 0 70 44 70 98 0 56-19 98-73 100-31 1-45-17-59-34 3 33 2 69 2 105H25l-1-265h48c2 10 0 23 3 31 11-24 29-35 60-35zM114-30c33 0 39-31 40-66 0-38-9-64-40-64-56 0-55 130 0 130" id="I"/><use transform="matrix(0.04938271604938272,0,0,0.04938271604938272,0,0)" xlink:href="#I" id="l"/></defs></g></svg>